<svg xmlns="http://www.w3.org/2000/svg" viewBox="0 0 1920 1080">
  <defs>
    <linearGradient id="bg" x1="0" y1="0" x2="1" y2="1"><stop stop-color="#090717"/><stop offset=".5" stop-color="#251145"/><stop offset="1" stop-color="#721d78"/></linearGradient>
    <radialGradient id="moon"><stop stop-color="#f2d9ff"/><stop offset=".6" stop-color="#b892ff"/><stop offset="1" stop-color="#8f65ff" stop-opacity="0"/></radialGradient>
    <filter id="blur"><feGaussianBlur stdDeviation="24"/></filter>
  </defs>
  <rect width="1920" height="1080" fill="url(#bg)"/>
  <circle cx="1500" cy="390" r="340" fill="url(#moon)" opacity=".75"/>
  <path d="M1060 890c130-340 270-510 450-650-80 240-35 450 180 650z" fill="#121024" opacity=".74"/>
  <g fill="none" stroke="#e6b9ff" opacity=".64"><path d="M1010 760c250-150 470-160 750-20"/><path d="M1090 820c220-105 440-110 650-20"/></g>
  <g fill="#ff77d5" filter="url(#blur)" opacity=".42"><circle cx="1190" cy="280" r="75"/><circle cx="1710" cy="700" r="86"/></g>
  <g fill="#fff"><circle cx="1010" cy="190" r="3"/><circle cx="1280" cy="120" r="4"/><circle cx="1770" cy="240" r="3"/><circle cx="1140" cy="580" r="3"/></g>
  <path d="M0 940c410-150 710-90 980 30 330 145 610 105 940-40v150H0z" fill="#070611" opacity=".72"/>
</svg>
