<svg xmlns="http://www.w3.org/2000/svg" viewBox="0 0 1920 1080">
  <defs>
    <linearGradient id="bg" x1="0" y1="0" x2="1" y2="1"><stop stop-color="#061a24"/><stop offset=".55" stop-color="#073949"/><stop offset="1" stop-color="#091d38"/></linearGradient>
    <linearGradient id="ribbon" x1="0" y1="0" x2="1" y2="1"><stop stop-color="#80fff1"/><stop offset=".5" stop-color="#31d7db"/><stop offset="1" stop-color="#5479ff"/></linearGradient>
    <filter id="glow"><feGaussianBlur stdDeviation="18"/></filter>
  </defs>
  <rect width="1920" height="1080" fill="url(#bg)"/>
  <path d="M1040 930c170-300 145-570-20-830 320 220 410 505 265 830z" fill="url(#ribbon)" opacity=".78"/>
  <path d="M1480 950c-120-300-70-590 170-850-80 330 0 590 250 790z" fill="url(#ribbon)" opacity=".7"/>
  <circle cx="1450" cy="465" r="230" fill="none" stroke="#73fff0" stroke-width="7" opacity=".48"/>
  <circle cx="1450" cy="465" r="155" fill="#54e7e0" opacity=".14"/>
  <g stroke="#69fff0" opacity=".46"><path d="M930 230h820M870 330h980M900 680h900M980 790h700"/></g>
  <g fill="#76fff0" filter="url(#glow)" opacity=".5"><circle cx="1150" cy="220" r="38"/><circle cx="1710" cy="580" r="52"/><circle cx="1370" cy="790" r="45"/></g>
  <path d="M0 920c380-90 680-20 910 80 330 140 670 80 1010-80v160H0z" fill="#031018" opacity=".68"/>
</svg>
